<?xml version="1.0" encoding="UTF-8" standalone="no"?>
<!-- Created with Inkscape (http://www.inkscape.org/) -->

<svg
   xmlns:dc="http://purl.org/dc/elements/1.1/"
   xmlns:cc="http://creativecommons.org/ns#"
   xmlns:rdf="http://www.w3.org/1999/02/22-rdf-syntax-ns#"
   xmlns:svg="http://www.w3.org/2000/svg"
   xmlns="http://www.w3.org/2000/svg"
   xmlns:sodipodi="http://sodipodi.sourceforge.net/DTD/sodipodi-0.dtd"
   xmlns:inkscape="http://www.inkscape.org/namespaces/inkscape"
   width="256"
   height="256"
   viewBox="0 0 67.733332 67.733335"
   version="1.1"
   id="svg8"
   inkscape:version="0.92.3 (2405546, 2018-03-11)"
   sodipodi:docname="mayostar.svg">
  <defs
     id="defs2" />
  <sodipodi:namedview
     id="base"
     pagecolor="#ffffff"
     bordercolor="#666666"
     borderopacity="1.0"
     inkscape:pageopacity="0.0"
     inkscape:pageshadow="2"
     inkscape:zoom="2.8284271"
     inkscape:cx="98.922085"
     inkscape:cy="152.13288"
     inkscape:document-units="mm"
     inkscape:current-layer="layer1"
     showgrid="false"
     units="px"
     inkscape:window-width="1920"
     inkscape:window-height="1027"
     inkscape:window-x="-8"
     inkscape:window-y="-8"
     inkscape:window-maximized="1" />
  <metadata
     id="metadata5">
    <rdf:RDF>
      <cc:Work
         rdf:about="">
        <dc:format>image/svg+xml</dc:format>
        <dc:type
           rdf:resource="http://purl.org/dc/dcmitype/StillImage" />
        <dc:title></dc:title>
      </cc:Work>
    </rdf:RDF>
  </metadata>
  <g
     inkscape:label="Layer 1"
     inkscape:groupmode="layer"
     id="layer1"
     transform="translate(0,-229.26665)">
    <path
       style="opacity:1;fill:#ffa918;fill-opacity:1;stroke:none;stroke-width:2.11666656;stroke-linecap:butt;stroke-linejoin:miter;stroke-miterlimit:4;stroke-dasharray:none;stroke-opacity:1;paint-order:markers fill stroke"
       inkscape:transform-center-x="-0.064649994"
       inkscape:transform-center-y="-2.6475343"
       d="m 51.578086,290.46208 c -3.099682,2.21745 -13.893446,-7.02032 -17.704531,-7.0483 -3.811085,-0.028 -14.739319,9.05032 -17.806106,6.78759 -3.066785,-2.26275 2.383418,-15.38285 1.232338,-19.01605 C 16.14871,267.5521 4.1377189,259.96408 5.3420159,256.34817 c 1.204301,-3.61591 15.3664721,-2.48679 18.4661521,-4.70425 3.099679,-2.21747 6.604712,-15.98543 10.415796,-15.95745 3.811085,0.028 7.113585,13.84592 10.18037,16.10866 3.066791,2.26274 17.24401,1.34169 18.395091,4.97489 1.15108,3.6332 -10.970041,11.04405 -12.17434,14.65996 -1.204301,3.61592 4.052679,16.81464 0.953001,19.0321 z"
       id="path5322-3-3"
       inkscape:connector-curvature="0" />
    <path
       style="opacity:1;fill:#ffda29;fill-opacity:1;stroke:none;stroke-width:1.05799985;stroke-linecap:butt;stroke-linejoin:miter;stroke-miterlimit:4;stroke-dasharray:none;stroke-opacity:1;paint-order:markers fill stroke"
       d="m 25.874611,248.84042 c -0.707114,1.30326 -1.396322,2.3245 -2.066538,2.80397 -3.099681,2.21746 -17.2617561,1.08819 -18.4660581,4.7041 -1.204296,3.61591 10.8068491,11.20414 11.9579271,14.83735 1.15108,3.6332 -4.299269,16.75315 -1.232482,19.01589 3.066785,2.26272 13.99506,-6.81569 17.806146,-6.78771 1.101262,0.008 2.793449,0.79425 4.706688,1.84176 A 28.159226,28.064733 0 0 0 41.089185,273.7371 28.159226,28.064733 0 0 0 25.874611,248.84042 Z"
       id="path5132-1"
       inkscape:connector-curvature="0" />
    <path
       style="opacity:1;fill:#ffe671;fill-opacity:1;stroke:none;stroke-width:2.11666656;stroke-linecap:butt;stroke-linejoin:miter;stroke-miterlimit:4;stroke-dasharray:none;stroke-opacity:1;paint-order:markers fill stroke"
       d="m 19.034984,252.88937 c -5.334219,0.69973 -12.8271201,0.86083 -13.6921901,3.45819 -1.204295,3.61591 10.8068531,11.20412 11.9579311,14.83734 1.15108,3.6332 -4.299271,16.75316 -1.232485,19.0159 2.456955,1.81278 9.911874,-3.59474 14.758273,-5.826 a 32.366342,34.892036 0 0 1 -0.558104,-0.45734 32.366342,34.892036 0 0 1 -2.367299,-2.37712 32.366342,34.892036 0 0 1 -2.135269,-2.62051 32.366342,34.892036 0 0 1 -1.882056,-2.83704 32.366342,34.892036 0 0 1 -1.609722,-3.02513 32.366342,34.892036 0 0 1 -1.321366,-3.18379 32.366342,34.892036 0 0 1 -1.020609,-3.30988 32.366342,34.892036 0 0 1 -0.708483,-3.40289 32.366342,34.892036 0 0 1 -0.389641,-3.46233 32.366342,34.892036 0 0 1 -0.08113,-2.46806 32.366342,34.892036 0 0 1 0.161748,-3.48351 32.366342,34.892036 0 0 1 0.120404,-0.85783 z"
       id="path5412"
       inkscape:connector-curvature="0" />
    <path
       style="fill:none;stroke:#ffffff;stroke-width:1.32291663;stroke-linecap:round;stroke-linejoin:miter;stroke-miterlimit:4;stroke-dasharray:none;stroke-opacity:1"
       d="m 19.810254,279.53322 -1.464612,6.38565"
       id="path5414"
       inkscape:connector-curvature="0"
       sodipodi:nodetypes="cc" />
    <path
       style="fill:none;stroke:#ffffff;stroke-width:1.32291663;stroke-linecap:round;stroke-linejoin:miter;stroke-miterlimit:4;stroke-dasharray:none;stroke-opacity:1"
       d="m 21.085413,274.50667 -0.472425,2.08617"
       id="path5414-3"
       inkscape:connector-curvature="0"
       sodipodi:nodetypes="cc" />
    <path
       style="opacity:1;fill:none;fill-opacity:1;stroke:#161a40;stroke-width:2.11666656;stroke-linecap:round;stroke-linejoin:miter;stroke-miterlimit:4;stroke-dasharray:none;stroke-opacity:1;paint-order:markers fill stroke"
       d="m 58.201746,254.36862 c 2.383713,0.4856 4.21407,1.19059 4.597682,2.40141 1.15108,3.6332 -10.970035,11.04405 -12.174336,14.65996 -1.204299,3.61591 4.052673,16.81463 0.952994,19.03209 v 0 c -3.099678,2.21746 -13.893439,-7.02032 -17.704524,-7.0483 -3.811084,-0.028 -14.739321,9.05032 -17.806109,6.78759 -3.066782,-2.26274 2.38342,-15.38285 1.23234,-19.01605 -1.151075,-3.63321 -13.1620764,-11.22123 -11.9577646,-14.83714 1.204296,-3.61591 15.3664656,-2.48679 18.4661466,-4.70425 3.099678,-2.21747 6.604711,-15.98543 10.415796,-15.95745 3.811084,0.028 7.113584,13.84592 10.18037,16.10866 0.743916,0.54887 2.141582,0.91041 3.848493,1.19506"
       id="path6106"
       inkscape:connector-curvature="0" />
    <path
       style="opacity:1;fill:none;fill-opacity:1;stroke:#161a40;stroke-width:2.11666656;stroke-linecap:round;stroke-linejoin:miter;stroke-miterlimit:4;stroke-dasharray:none;stroke-opacity:1;paint-order:markers fill stroke"
       d="m 52.701327,253.5746 c 1.025887,0.12021 2.061818,0.24318 3.059907,0.38424"
       id="path6085"
       inkscape:connector-curvature="0" />
  </g>
</svg>
