<?xml version="1.0" encoding="UTF-8" standalone="no"?>
<!-- Created with Inkscape (http://www.inkscape.org/) -->

<svg
   xmlns:dc="http://purl.org/dc/elements/1.1/"
   xmlns:cc="http://creativecommons.org/ns#"
   xmlns:rdf="http://www.w3.org/1999/02/22-rdf-syntax-ns#"
   xmlns:svg="http://www.w3.org/2000/svg"
   xmlns="http://www.w3.org/2000/svg"
   xmlns:sodipodi="http://sodipodi.sourceforge.net/DTD/sodipodi-0.dtd"
   xmlns:inkscape="http://www.inkscape.org/namespaces/inkscape"
   width="300"
   height="400"
   viewBox="0 0 79.374998 105.83334"
   version="1.1"
   id="svg8"
   inkscape:version="0.92.3 (2405546, 2018-03-11)"
   sodipodi:docname="reference.svg">
  <defs
     id="defs2" />
  <sodipodi:namedview
     id="base"
     pagecolor="#272727"
     bordercolor="#666666"
     borderopacity="1.0"
     inkscape:pageopacity="0"
     inkscape:pageshadow="2"
     inkscape:zoom="1.979899"
     inkscape:cx="33.154152"
     inkscape:cy="271.02585"
     inkscape:document-units="mm"
     inkscape:current-layer="layer1"
     showgrid="false"
     units="px"
     inkscape:window-width="1920"
     inkscape:window-height="1027"
     inkscape:window-x="-8"
     inkscape:window-y="-8"
     inkscape:window-maximized="1" />
  <metadata
     id="metadata5">
    <rdf:RDF>
      <cc:Work
         rdf:about="">
        <dc:format>image/svg+xml</dc:format>
        <dc:type
           rdf:resource="http://purl.org/dc/dcmitype/StillImage" />
        <dc:title></dc:title>
      </cc:Work>
    </rdf:RDF>
  </metadata>
  <g
     inkscape:label="Layer 1"
     inkscape:groupmode="layer"
     id="layer1"
     transform="translate(0,-191.16665)">
    <rect
       style="opacity:1;fill:#6e6e6e;fill-opacity:1;stroke:none;stroke-width:1.05800009;stroke-linecap:butt;stroke-linejoin:miter;stroke-miterlimit:4;stroke-dasharray:none;stroke-opacity:1;paint-order:markers fill stroke"
       id="rect815"
       width="79.375"
       height="26.458334"
       x="0"
       y="191.16666" />
    <text
       xml:space="preserve"
       style="font-style:normal;font-weight:normal;font-size:6.3499999px;line-height:1.25;font-family:sans-serif;letter-spacing:0px;word-spacing:0px;fill:#000000;fill-opacity:1;stroke:none;stroke-width:0.26458332"
       x="4.4099469"
       y="201.05022"
       id="text819"><tspan
         sodipodi:role="line"
         id="tspan817"
         x="4.4099469"
         y="206.84352"
         style="stroke-width:0.26458332" /></text>
    <circle
       style="opacity:1;fill:#3498db;fill-opacity:1;stroke:none;stroke-width:1.05799997;stroke-linecap:butt;stroke-linejoin:miter;stroke-miterlimit:4;stroke-dasharray:none;stroke-opacity:0;paint-order:markers fill stroke"
       id="path821"
       cx="24.077085"
       cy="204.39581"
       r="6.0855832" />
    <text
       xml:space="preserve"
       style="font-style:normal;font-weight:normal;font-size:6.3499999px;line-height:1.25;font-family:sans-serif;letter-spacing:0px;word-spacing:0px;fill:#fafafa;fill-opacity:1;stroke:none;stroke-width:0.26458332"
       x="31.75"
       y="204.33174"
       id="text825"><tspan
         sodipodi:role="line"
         id="tspan823"
         x="31.75"
         y="204.33174"
         style="font-style:normal;font-variant:normal;font-weight:normal;font-stretch:normal;font-size:4.23333311px;font-family:Arial;-inkscape-font-specification:Arial;font-variant-ligatures:normal;font-variant-caps:normal;font-variant-numeric:normal;font-feature-settings:normal;text-align:start;writing-mode:lr-tb;text-anchor:start;fill:#fafafa;fill-opacity:1;stroke-width:0.26458332">Titlearea</tspan></text>
    <text
       xml:space="preserve"
       style="font-style:normal;font-weight:normal;font-size:6.3499999px;line-height:1.25;font-family:sans-serif;letter-spacing:0px;word-spacing:0px;fill:#fafafa;fill-opacity:1;stroke:none;stroke-width:0.26458332"
       x="31.714169"
       y="207.52809"
       id="text833"><tspan
         sodipodi:role="line"
         id="tspan831"
         x="31.714169"
         y="207.52809"
         style="font-style:normal;font-variant:normal;font-weight:normal;font-stretch:normal;font-size:2.82222223px;font-family:Arial;-inkscape-font-specification:Arial;font-variant-ligatures:normal;font-variant-caps:normal;font-variant-numeric:normal;font-feature-settings:normal;text-align:start;writing-mode:lr-tb;text-anchor:start;fill:#fafafa;fill-opacity:1;stroke-width:0.26458332">A lesser area</tspan></text>
    <circle
       style="opacity:1;fill:#6e6e6e;fill-opacity:1;stroke:#cbcbcb;stroke-width:1.05799997;stroke-linecap:butt;stroke-linejoin:miter;stroke-miterlimit:4;stroke-dasharray:none;stroke-opacity:1;paint-order:markers fill stroke"
       id="path821-0"
       cx="39.6875"
       cy="227.41463"
       r="6.0855832" />
    <rect
       style="opacity:1;fill:#6e6e6e;fill-opacity:1;stroke:#cbcbcb;stroke-width:1.05799997;stroke-linecap:butt;stroke-linejoin:miter;stroke-miterlimit:4;stroke-dasharray:none;stroke-opacity:1;paint-order:markers fill stroke"
       id="rect854"
       width="48.941998"
       height="28.941999"
       x="15.529001"
       y="248.29982" />
    <rect
       style="opacity:1;fill:#6e6e6e;fill-opacity:1;stroke:#cbcbcb;stroke-width:1.05799997;stroke-linecap:butt;stroke-linejoin:miter;stroke-miterlimit:4;stroke-dasharray:none;stroke-opacity:1;paint-order:markers fill stroke"
       id="rect854-0"
       width="48.942001"
       height="28.941998"
       x="70.529007"
       y="248.29982" />
    <rect
       style="opacity:1;fill:#6e6e6e;fill-opacity:1;stroke:#cbcbcb;stroke-width:1.05799997;stroke-linecap:butt;stroke-linejoin:miter;stroke-miterlimit:4;stroke-dasharray:none;stroke-opacity:1;paint-order:markers fill stroke"
       id="rect854-0-5"
       width="48.942001"
       height="28.941998"
       x="-39.471001"
       y="248.29985" />
    <text
       xml:space="preserve"
       style="font-style:normal;font-weight:normal;font-size:6.3499999px;line-height:1.25;font-family:sans-serif;letter-spacing:0px;word-spacing:0px;fill:#ffffff;fill-opacity:1;stroke:none;stroke-width:0.26458332;"
       x="33.8615"
       y="241.15694"
       id="text888"><tspan
         sodipodi:role="line"
         id="tspan886"
         x="33.8615"
         y="241.15694"
         style="font-style:normal;font-variant:normal;font-weight:normal;font-stretch:normal;font-family:Arial;-inkscape-font-specification:Arial;stroke-width:0.26458332;fill:#ffffff;fill-opacity:1;">Title</tspan></text>
    <text
       xml:space="preserve"
       style="font-style:normal;font-variant:normal;font-weight:normal;font-stretch:normal;font-size:6.3499999px;line-height:1.25;font-family:Arial;-inkscape-font-specification:'Arial, Normal';font-variant-ligatures:normal;font-variant-caps:normal;font-variant-numeric:normal;font-feature-settings:normal;text-align:start;letter-spacing:0px;word-spacing:0px;writing-mode:lr-tb;text-anchor:start;fill:#ffffff;fill-opacity:1;stroke:none;stroke-width:0.26458332;"
       x="27.484972"
       y="245.45689"
       id="text4596"><tspan
         sodipodi:role="line"
         id="tspan4594"
         x="27.484972"
         y="245.45689"
         style="font-style:normal;font-variant:normal;font-weight:normal;font-stretch:normal;font-size:3.88055563px;font-family:Arial;-inkscape-font-specification:'Arial, Normal';font-variant-ligatures:normal;font-variant-caps:normal;font-variant-numeric:normal;font-feature-settings:normal;text-align:start;writing-mode:lr-tb;text-anchor:start;stroke-width:0.26458332;fill:#ffffff;fill-opacity:1;">Lil Description</tspan></text>
    <text
       xml:space="preserve"
       style="font-style:normal;font-weight:normal;font-size:6.3499999px;line-height:1.25;font-family:sans-serif;letter-spacing:0px;word-spacing:0px;fill:#ffffff;fill-opacity:1;stroke:none;stroke-width:0.26458332;"
       x="2.6458333"
       y="287.68845"
       id="text4604"><tspan
         sodipodi:role="line"
         id="tspan4602"
         x="2.6458333"
         y="287.68845"
         style="font-style:normal;font-variant:normal;font-weight:normal;font-stretch:normal;font-family:Arial;-inkscape-font-specification:Arial;stroke-width:0.26458332;fill:#ffffff;fill-opacity:1;">Markdown Page</tspan></text>
    <text
       xml:space="preserve"
       style="font-style:normal;font-weight:normal;font-size:6.3499999px;line-height:1.25;font-family:sans-serif;letter-spacing:0px;word-spacing:0px;fill:#ffffff;fill-opacity:1;stroke:none;stroke-width:0.26458332;"
       x="2.6458333"
       y="292.0466"
       id="text4608"><tspan
         sodipodi:role="line"
         x="2.6458333"
         y="292.0466"
         style="font-style:normal;font-variant:normal;font-weight:normal;font-stretch:normal;font-size:3.52777767px;font-family:Arial;-inkscape-font-specification:Arial;font-variant-ligatures:normal;font-variant-caps:normal;font-variant-numeric:normal;font-feature-settings:normal;text-align:start;writing-mode:lr-tb;text-anchor:start;stroke-width:0.26458332;fill:#ffffff;fill-opacity:1;"
         id="tspan4610">My bot can send random images from cats</tspan></text>
    <text
       xml:space="preserve"
       style="font-style:normal;font-weight:normal;font-size:6.3499999px;line-height:1.25;font-family:sans-serif;letter-spacing:0px;word-spacing:0px;fill:#ffffff;fill-opacity:1;stroke:none;stroke-width:0.26458332;"
       x="2.6458333"
       y="295.84659"
       id="text4616"><tspan
         sodipodi:role="line"
         id="tspan4614"
         x="2.6458333"
         y="295.84659"
         style="font-style:normal;font-variant:normal;font-weight:normal;font-stretch:normal;font-size:3.52777767px;font-family:Arial;-inkscape-font-specification:Arial;font-variant-ligatures:normal;font-variant-caps:normal;font-variant-numeric:normal;font-feature-settings:normal;text-align:start;writing-mode:lr-tb;text-anchor:start;stroke-width:0.26458332;fill:#ffffff;fill-opacity:1;">You can support my bot, by sending love</tspan></text>
    <text
       xml:space="preserve"
       style="font-style:normal;font-weight:normal;font-size:6.3499999px;line-height:1.25;font-family:sans-serif;letter-spacing:0px;word-spacing:0px;fill:#ffffff;fill-opacity:1;stroke:none;stroke-width:0.26458332;"
       x="2.6458333"
       y="300.27133"
       id="text4620"><tspan
         sodipodi:role="line"
         id="tspan4618"
         x="2.6458333"
         y="300.27133"
         style="font-style:normal;font-variant:normal;font-weight:normal;font-stretch:normal;font-size:3.52777767px;font-family:Arial;-inkscape-font-specification:Arial;font-variant-ligatures:normal;font-variant-caps:normal;font-variant-numeric:normal;font-feature-settings:normal;text-align:start;writing-mode:lr-tb;text-anchor:start;stroke-width:0.26458332;fill:#ffffff;fill-opacity:1;">and abusing upvotes at .org</tspan></text>
    <path
       style="fill:none;stroke:#000000;stroke-width:0.26458332px;stroke-linecap:butt;stroke-linejoin:miter;stroke-opacity:1"
       d="m 21.811539,201.4899 c -0.110024,0.0427 -0.21972,0.0334 -0.334087,0.0334 -0.01114,0 -0.02228,0 -0.03341,0 -0.01114,0 -0.02553,-0.008 -0.03341,0 -0.0079,0.008 0.0079,0.0255 0,0.0334 -0.01574,0.0157 -0.05107,-0.0158 -0.06681,0 -0.0079,0.008 0.0079,0.0255 0,0.0334 -0.0167,0.0167 -0.08352,-0.0167 -0.100227,0 -0.0079,0.008 0.0079,0.0255 0,0.0334 -0.0167,0.0167 -0.08352,-0.0167 -0.100226,0 -0.0079,0.008 0.0079,0.0255 0,0.0334 -0.01574,0.0157 -0.05107,-0.0157 -0.06682,0 -0.0079,0.008 0.0079,0.0255 0,0.0334 -0.0079,0.008 -0.02553,-0.008 -0.03341,0 -0.0079,0.008 0.0079,0.0255 0,0.0334 -0.0079,0.008 -0.02553,-0.008 -0.03341,0 -0.01574,0.0157 0.01574,0.0511 0,0.0668 -0.0079,0.008 -0.02553,-0.008 -0.03341,0 -0.0079,0.008 0.0079,0.0255 0,0.0334 -0.0079,0.008 -0.02553,-0.008 -0.03341,0 -0.01574,0.0157 0.01574,0.0511 0,0.0668 -0.0079,0.008 -0.02553,-0.008 -0.03341,0 -0.01574,0.0157 0.01574,0.0511 0,0.0668 -0.0079,0.008 -0.02553,-0.008 -0.03341,0 -0.008,0.008 0.008,0.1256 0,0.13364 -0.0079,0.008 -0.02553,-0.008 -0.03341,0 -0.0091,0.009 0.0091,0.11551 0,0.13363 -0.007,0.0141 -0.02843,0.0185 -0.03341,0.0334 -0.01056,0.0317 0,0.0668 0,0.10023 0,0.0668 0,0.13363 0,0.20045 0,0.0111 0,0.0223 0,0.0334 0,0.0111 0.005,0.0234 0,0.0334 -0.007,0.0141 -0.02843,0.0185 -0.03341,0.0334 -0.007,0.0211 0,0.0445 0,0.0668 0,0.0557 0,0.11137 0,0.16705 0,0.0891 0,0.17818 0,0.26727 0,0.015 -0.0051,0.0901 0,0.10022 0.007,0.0141 0.02635,0.0193 0.03341,0.0334 0.0051,0.0102 0,0.0852 0,0.10023 0,0.0891 0,0.17818 0,0.26727 0,0.0891 -0.01114,-0.0111 0.03341,0.0334 0.0079,0.008 0,0.0223 0,0.0334 0,0.0111 0,0.0223 0,0.0334 0,0.0237 -0.0043,0.19182 0,0.20046 0.007,0.0141 0.02635,0.0193 0.03341,0.0334 0.0105,0.021 -0.0105,0.11264 0,0.13364 0.007,0.0141 0.02635,0.0193 0.03341,0.0334 0.01336,0.0267 -0.01336,0.0735 0,0.10022 0.007,0.0141 0.02638,0.0193 0.03341,0.0334 0.0091,0.0181 -0.0091,0.1245 0,0.13364 0.0079,0.008 0.02553,-0.008 0.03341,0 0.0091,0.009 -0.0091,0.11551 0,0.13363 0.007,0.0141 0.02635,0.0193 0.03341,0.0334 0.01035,0.0207 -0.0099,0.12375 0,0.13363 0.0079,0.008 0.02553,-0.008 0.03341,0 0.0011,0.001 0,0.0921 0,0.10023 0,0.008 -0.0011,0.0992 0,0.10023 0.0079,0.008 0.02553,-0.008 0.03341,0 0.0079,0.008 0,0.0223 0,0.0334 0,0.0158 -0.0016,0.16553 0,0.16704 0.0079,0.008 0.02553,-0.008 0.03341,0 0.0052,0.005 -0.0043,0.0872 0,0.10023 0.0079,0.0236 0.02553,0.0432 0.03341,0.0668 0.0076,0.023 -0.0099,0.0805 0,0.10023 0.007,0.0141 0.02635,0.0193 0.03341,0.0334 0.005,0.01 -0.0027,0.0226 0,0.0334 0.0085,0.0342 0.0265,0.0657 0.03341,0.10022 2.56e-4,10e-4 -1.65e-4,0.10006 0,0.10023 0.0079,0.008 0.02553,-0.008 0.03341,0 0.0091,0.009 -0.0091,0.11551 0,0.13363 0.007,0.0141 0.02635,0.0193 0.03341,0.0334 0.0099,0.0199 -0.0099,0.0469 0,0.0668 0.007,0.0141 0.02635,0.0193 0.03341,0.0334 0.005,0.01 0,0.0223 0,0.0334 0,0.0111 0,0.0223 0,0.0334 0,0.0557 0,0.11136 0,0.16704 0,0.0111 0,0.0223 0,0.0334 0,0.0111 -0.005,0.0234 0,0.0334 0.007,0.0141 0.02635,0.0193 0.03341,0.0334 0.0099,0.0199 -0.01574,0.0511 0,0.0668 0.0079,0.008 0.02553,-0.008 0.03341,0 0.01669,0.0167 -0.0167,0.0835 0,0.10023 0.0079,0.008 0.02843,-0.01 0.03341,0 0.02988,0.0263 -0.01495,0.0703 0,0.10022 0.007,0.0141 0.02638,0.0193 0.03341,0.0334 0.005,0.01 0,0.0223 0,0.0334 0.01114,0.0111 0.02635,0.0193 0.03341,0.0334 0.0099,0.0199 -0.0099,0.0469 0,0.0668 0.007,0.0141 0.02635,0.0193 0.03341,0.0334 0.005,0.01 -0.005,0.0234 0,0.0334 0.007,0.0141 0.02638,0.0193 0.03341,0.0334 0.0099,0.0199 -0.01574,0.0511 0,0.0668 0.0079,0.008 0.02553,-0.008 0.03341,0 0.01574,0.0157 -0.007,0.0457 0,0.0668 0.08066,0.24199 -0.0096,-0.0527 0.06682,0.10022 0.0099,0.0199 -0.0099,0.0469 0,0.0668 0.01797,0.0359 0.04273,0.0681 0.06682,0.10023 0.0094,0.0126 0.02638,0.0193 0.03341,0.0334 0.005,0.01 -0.005,0.0234 0,0.0334 0.007,0.0141 0.02635,0.0193 0.03341,0.0334 0.005,0.01 -0.0079,0.0255 0,0.0334 0.0079,0.008 0.02553,-0.008 0.03341,0 0.0079,0.008 -0.0079,0.0255 0,0.0334 0.0079,0.008 0.02553,-0.008 0.03341,0 0.0079,0.008 -0.0079,0.0255 0,0.0334 0.0079,0.008 0.02553,-0.008 0.03341,0 0.0079,0.008 -0.0079,0.0255 0,0.0334 0.0079,0.008 0.02344,-0.005 0.03341,0 0.01408,0.007 0.01931,0.0264 0.03341,0.0334 0.0099,0.005 0.02553,-0.008 0.03341,0 0.0079,0.008 -0.0079,0.0255 0,0.0334 0.0167,0.0167 0.08352,-0.0167 0.100224,0 0.0079,0.008 -0.0079,0.0255 0,0.0334 0.0079,0.008 0.02344,-0.005 0.03341,0 0.01408,0.007 0.01931,0.0264 0.03341,0.0334 0.0099,0.005 0.02553,-0.008 0.03341,0 0.0079,0.008 -0.0079,0.0255 0,0.0334 0.01574,0.0157 0.0469,-0.01 0.06682,0 0.110802,0.11081 -0.0315,-0.0157 0.06682,0.0334 0.01408,0.007 0.01932,0.0264 0.03341,0.0334 0.0099,0.005 0.02553,-0.008 0.03341,0 0.0079,0.008 -0.0079,0.0255 0,0.0334 0.0079,0.008 0.02344,-0.005 0.03341,0 0.01408,0.007 0.01932,0.0264 0.03341,0.0334 0.0099,0.005 0.02344,-0.005 0.03341,0 0.02817,0.0141 0.03864,0.0527 0.06682,0.0668 0.0099,0.005 0.02553,-0.008 0.03341,0 0.0079,0.008 -0.0079,0.0255 0,0.0334 0.01574,0.0157 0.0469,-0.01 0.06682,0 0.01408,0.007 0.02029,0.0247 0.03341,0.0334 0.02643,0.0176 0.170958,0.0904 0.200451,0.10023 0.02114,0.007 0.05107,-0.0157 0.06682,0 0.0079,0.008 -0.0079,0.0255 0,0.0334 0.008,0.008 0.125595,-0.008 0.133636,0 0.0079,0.008 -0.0079,0.0255 0,0.0334 0.0011,0.001 0.09212,0 0.100224,0 0.233862,0 0.467722,0 0.701582,0 0.155909,0 0.311817,0 0.467723,0 0.02611,0 0.215598,0.006 0.23386,0 0.02363,-0.008 0.04266,-0.0274 0.06682,-0.0334 0.02162,-0.005 0.04454,0 0.06682,0 0.06682,0 0.133636,0 0.200454,0 0.01114,0 0.02228,0 0.03341,0 0.01114,0 0.02344,0.005 0.03341,0 0.01408,-0.007 0.01847,-0.0284 0.03341,-0.0334 0.02612,-0.009 0.182068,0.009 0.200454,0 0.01408,-0.007 0.01931,-0.0264 0.03341,-0.0334 0.02101,-0.0105 0.112636,0.0105 0.133633,0 0.01408,-0.007 0.01931,-0.0264 0.03341,-0.0334 0.01992,-0.01 0.0469,0.01 0.06682,0 0.01408,-0.007 0.01931,-0.0264 0.03341,-0.0334 0.02101,-0.0105 0.112635,0.0105 0.133633,0 0.01408,-0.007 0.01931,-0.0264 0.03341,-0.0334 0.02673,-0.0134 0.0735,0.0134 0.100226,0 0.01408,-0.007 0.01931,-0.0264 0.03341,-0.0334 0.02673,-0.0134 0.0735,0.0134 0.100227,0 0.01408,-0.007 0.01931,-0.0264 0.03341,-0.0334 0.01992,-0.01 0.05107,0.0157 0.06681,0 0.0079,-0.008 -0.0079,-0.0255 0,-0.0334 0.0091,-0.009 0.115512,0.009 0.133636,0 0.01408,-0.007 0.01931,-0.0264 0.03341,-0.0334 0.01812,-0.009 0.124494,0.009 0.133636,0 0.0079,-0.008 -0.0079,-0.0255 0,-0.0334 0.0167,-0.0167 0.08352,0.0167 0.100224,0 0.0079,-0.008 -0.0079,-0.0255 0,-0.0334 0.01669,-0.0167 0.08352,0.0167 0.100227,0 0.0079,-0.008 -0.0079,-0.0255 0,-0.0334 0.01669,-0.0167 0.08352,0.0167 0.100227,0 0.0079,-0.008 -0.0079,-0.0255 0,-0.0334 0.01574,-0.0157 0.04689,0.01 0.06682,0 0.01407,-0.007 0.01931,-0.0264 0.03341,-0.0334 0.0099,-0.005 0.02553,0.008 0.03341,0 0.0079,-0.008 -0.0079,-0.0255 0,-0.0334 0.0079,-0.008 0.02553,0.008 0.03341,0 0.0079,-0.008 -0.0079,-0.0255 0,-0.0334 0.0079,-0.008 0.02553,0.008 0.03341,0 0.01574,-0.0157 -0.01574,-0.0511 0,-0.0668 0.0079,-0.008 0.02553,0.008 0.03341,0 0.0068,-0.007 -0.0066,-0.087 0,-0.10023 0.007,-0.0141 0.02843,-0.0185 0.03341,-0.0334 0.007,-0.0211 -0.0099,-0.0469 0,-0.0668 0.005,-0.01 0.02553,0.008 0.03341,0 0.004,-0.004 -0.0034,-0.0531 0,-0.0668 0.0085,-0.0342 0.02487,-0.0661 0.03341,-0.10023 0.0027,-0.0108 -0.005,-0.0234 0,-0.0334 0.007,-0.0141 0.02635,-0.0193 0.03341,-0.0334 0.005,-0.01 -0.0027,-0.0226 0,-0.0334 0.0085,-0.0342 0.02487,-0.0661 0.03341,-0.10023 0.0054,-0.0216 -0.0044,-0.045 0,-0.0668 0.009,-0.045 0.0208,-0.0895 0.03341,-0.13364 0.01934,-0.0677 0.04973,-0.13212 0.06681,-0.20045 0.0027,-0.0108 -0.0027,-0.0226 0,-0.0334 0.0085,-0.0342 0.02487,-0.0661 0.03341,-0.10023 0.0054,-0.0216 -0.0099,-0.0469 0,-0.0668 0.007,-0.0141 0.02843,-0.0185 0.03341,-0.0334 5.1e-5,-1.5e-4 -3.1e-5,-0.1002 0,-0.10023 0.0079,-0.008 0.02553,0.008 0.03341,0 0.008,-0.008 -0.008,-0.12559 0,-0.13363 0.0079,-0.008 0.02843,0.01 0.03341,0 0.0039,-0.008 0,-0.11169 0,-0.13364 0,-0.0557 0,-0.11136 0,-0.16704 0,-0.0111 -0.0079,-0.0255 0,-0.0334 0.0079,-0.008 0.02553,0.008 0.03341,0 0.01024,-0.0102 -0.01032,-0.15672 0,-0.16704 0.0079,-0.008 0.02553,0.008 0.03341,0 0.0079,-0.008 0,-0.0223 0,-0.0334 0,-0.0668 0,-0.13364 0,-0.20045 0,-0.0151 -0.0051,-0.0901 0,-0.10023 0.007,-0.0141 0.02635,-0.0193 0.03341,-0.0334 0.01053,-0.0211 -0.01053,-0.14597 0,-0.16704 0.007,-0.0141 0.02843,-0.0185 0.03341,-0.0334 0.0062,-0.0185 0,-0.16681 0,-0.20045 0,-0.0111 0,-0.0223 0,-0.0334 0,-0.0111 -0.005,-0.0234 0,-0.0334 0.007,-0.0141 0.02638,-0.0193 0.03341,-0.0334 0.0038,-0.007 0,-0.1257 0,-0.13363 0,-0.1225 0,-0.245 0,-0.3675 0,-0.16704 0,-0.33409 0,-0.50113 0,-0.008 0.0011,-0.0992 0,-0.10023 -0.0079,-0.008 -0.02843,0.01 -0.03341,0 -0.0039,-0.008 0,-0.11168 0,-0.13363 0,-0.0891 0,-0.17818 0,-0.26727 0,-0.0237 0.0043,-0.19181 0,-0.20045 -0.007,-0.0141 -0.02635,-0.0193 -0.03341,-0.0334 -0.0053,-0.0106 0,-0.13719 0,-0.16705 0,-0.0111 0.0079,-0.0255 0,-0.0334 -0.0079,-0.008 -0.02553,0.008 -0.03341,0 -0.0068,-0.007 0.0066,-0.087 0,-0.10023 -0.007,-0.0141 -0.02635,-0.0193 -0.03341,-0.0334 -0.01336,-0.0267 0.01336,-0.0735 0,-0.10022 -0.007,-0.0141 -0.02635,-0.0193 -0.03341,-0.0334 -0.0091,-0.0181 0.0091,-0.1245 0,-0.13364 -0.0079,-0.008 -0.02553,0.008 -0.03341,0 -0.01574,-0.0157 0.007,-0.0457 0,-0.0668 -0.0079,-0.0236 -0.02553,-0.0432 -0.03341,-0.0668 -0.0035,-0.0106 0.0035,-0.0229 0,-0.0334 -0.0079,-0.0236 -0.02553,-0.0432 -0.03341,-0.0668 -0.0076,-0.023 0.0099,-0.0805 0,-0.10022 -0.007,-0.0141 -0.02635,-0.0193 -0.03341,-0.0334 -0.005,-0.01 0.005,-0.0234 0,-0.0334 -0.007,-0.0141 -0.02635,-0.0193 -0.03341,-0.0334 -0.005,-0.01 0.005,-0.0234 0,-0.0334 -0.007,-0.0141 -0.02635,-0.0193 -0.03341,-0.0334 -0.005,-0.01 0,-0.0223 0,-0.0334 -0.01114,-0.0111 -0.02635,-0.0193 -0.03341,-0.0334 -0.005,-0.01 0.0079,-0.0255 0,-0.0334 -0.0079,-0.008 -0.02553,0.008 -0.03341,0 -0.01574,-0.0157 0.01574,-0.0511 0,-0.0668 -0.0079,-0.008 -0.02553,0.008 -0.03341,0 -0.0079,-0.008 0.0079,-0.0255 0,-0.0334 -0.01669,-0.0167 -0.08352,0.0167 -0.100226,0 -0.0079,-0.008 0.0079,-0.0255 0,-0.0334 -0.0079,-0.008 -0.02344,0.005 -0.03341,0 -0.01408,-0.007 -0.01931,-0.0264 -0.03341,-0.0334 -0.01992,-0.01 -0.04689,0.01 -0.06682,0 -0.01408,-0.007 -0.01931,-0.0264 -0.03341,-0.0334 -0.01992,-0.01 -0.05107,0.0157 -0.06682,0 -0.0079,-0.008 0.0079,-0.0255 0,-0.0334 -0.0068,-0.007 -0.08698,0.007 -0.100227,0 -0.01408,-0.007 -0.01931,-0.0264 -0.03341,-0.0334 -0.01812,-0.009 -0.124492,0.009 -0.133633,0 -0.0079,-0.008 0.0079,-0.0255 0,-0.0334 -0.01034,-0.0103 -0.1567,0.0103 -0.167045,0 -0.0079,-0.008 0.0079,-0.0255 0,-0.0334 -0.0016,-0.002 -0.151291,0 -0.167045,0 -0.01746,0 -0.124849,0.004 -0.133633,0 -0.01408,-0.007 -0.01931,-0.0264 -0.03341,-0.0334 -0.01325,-0.007 -0.09339,0.007 -0.100226,0 -0.0079,-0.008 0.0079,-0.0255 0,-0.0334 -0.0079,-0.008 -0.02228,0 -0.03341,0 -0.01114,0 -0.02228,0 -0.03341,0 -0.155906,0 -0.311814,0 -0.46772,0 -0.233863,0 -0.467723,0 -0.701583,0 -0.01228,0 -0.132291,-10e-4 -0.133635,0 -0.0079,0.008 0.0079,0.0255 0,0.0334 -0.0079,0.008 -0.02228,0 -0.03341,0 -0.01114,0 -0.02228,0 -0.03341,0 -0.111361,0 -0.222724,0 -0.334087,0 -0.111363,0 -0.222723,0 -0.334087,0 -0.01746,0 -0.124849,-0.004 -0.133635,0 -0.01408,0.007 -0.01931,0.0264 -0.03341,0.0334 -0.0087,0.004 -0.176773,0 -0.200453,0 -0.01114,0 -0.02228,0 -0.03341,0 -0.01114,0 -0.02553,-0.008 -0.03341,0 -0.0079,0.008 0.0079,0.0255 0,0.0334 -0.0079,0.008 -0.02228,0 -0.03341,0 -0.01114,0 -0.02228,0 -0.03341,0 -0.06682,0 -0.133633,0 -0.200451,0 -0.01506,0 -0.09006,-0.005 -0.100227,0 -0.01408,0.007 -0.01931,0.0264 -0.03341,0.0334 -0.0099,0.005 -0.02228,0 -0.03341,0 -0.01114,0 -0.02228,0 -0.03341,0 -0.06682,0 -0.133636,0 -0.200454,0 -0.178178,0 -0.356359,0 -0.534537,0 -0.0081,0 -0.09915,-10e-4 -0.100227,0 -0.0079,0.008 0,0.0223 0,0.0334 -0.03341,0.0223 -0.06682,0.0445 -0.100227,0.0668 z"
       id="path4630"
       inkscape:connector-curvature="0" />
    <path
       style="fill:none;stroke:#000000;stroke-width:0.26458332px;stroke-linecap:butt;stroke-linejoin:miter;stroke-opacity:1"
       d="m 22.412897,202.35853 c -0.04454,-0.0223 -0.08909,-0.0446 -0.133635,-0.0668 0,-0.0111 0.0079,-0.0255 0,-0.0334 -0.0079,-0.008 -0.02553,0.008 -0.03341,0 -0.0079,-0.008 0.0079,-0.0255 0,-0.0334 -0.0079,-0.008 -0.02553,0.008 -0.03341,0 -0.0079,-0.008 0.0079,-0.0255 0,-0.0334 -0.0167,-0.0167 -0.08352,0.0167 -0.100227,0 -0.0079,-0.008 0.005,-0.0234 0,-0.0334 -0.06952,-0.13904 0.0024,0.0357 -0.06681,-0.0334 -0.0079,-0.008 0.0079,-0.0255 0,-0.0334 -0.0079,-0.008 -0.02553,0.008 -0.03341,0 -0.0079,-0.008 0.0079,-0.0255 0,-0.0334 -0.0079,-0.008 -0.02553,0.008 -0.03341,0 -0.01574,-0.0157 0.01574,-0.0511 0,-0.0668 -0.0079,-0.008 -0.02553,0.008 -0.03341,0 -0.0079,-0.008 0.0079,-0.0255 0,-0.0334 -0.0079,-0.008 -0.02553,0.008 -0.03341,0 -0.0079,-0.008 0.005,-0.0234 0,-0.0334 -0.007,-0.0141 -0.02635,-0.0193 -0.03341,-0.0334 -0.005,-0.01 0.0079,-0.0255 0,-0.0334 -0.0079,-0.008 -0.02553,0.008 -0.03341,0 -0.0068,-0.007 0.0066,-0.087 0,-0.10023 -0.007,-0.0141 -0.02635,-0.0193 -0.03341,-0.0334 -0.01781,-0.0356 0.01781,-0.0312 0,-0.0668 -0.007,-0.0141 -0.02635,-0.0193 -0.03341,-0.0334 -0.01154,-0.0231 0.01172,-0.15532 0,-0.16705 -0.0079,-0.008 -0.02553,0.008 -0.03341,0 -0.0079,-0.008 0,-0.0223 0,-0.0334 0,-0.0557 0,-0.11136 0,-0.16704 0,-0.0111 -0.0079,-0.0255 0,-0.0334 0.04454,-0.0445 0.03341,0.0557 0.03341,-0.0334 0,-0.0111 0,-0.0223 0,-0.0334 0,-0.0111 -0.0079,-0.0255 0,-0.0334 0.0079,-0.008 0.02553,0.008 0.03341,0 3.2e-5,-4e-5 -5e-5,-0.10008 0,-0.10023 0.005,-0.0149 0.02635,-0.0193 0.03341,-0.0334 0.005,-0.01 -0.0079,-0.0255 0,-0.0334 0.0079,-0.008 0.02553,0.008 0.03341,0 0.01574,-0.0157 -0.0099,-0.0469 0,-0.0668 0.007,-0.0141 0.02638,-0.0193 0.03341,-0.0334 0.0099,-0.0199 -0.01574,-0.0511 0,-0.0668 0.0079,-0.008 0.02553,0.008 0.03341,0 0.01574,-0.0157 -0.0099,-0.0469 0,-0.0668 0.007,-0.0141 0.02635,-0.0193 0.03341,-0.0334 0.005,-0.01 -0.0079,-0.0255 0,-0.0334 0.0079,-0.008 0.02553,0.008 0.03341,0 0.01574,-0.0157 -0.01574,-0.0511 0,-0.0668 0.0079,-0.008 0.02553,0.008 0.03341,0 0.0079,-0.008 -0.0079,-0.0255 0,-0.0334 0.0079,-0.008 0.02553,0.008 0.03341,0 0.0079,-0.008 -0.0079,-0.0255 0,-0.0334 0.0079,-0.008 0.02228,0 0.03341,0 0.01114,0 0.02228,0 0.03341,0 0.07795,0 0.155908,0 0.233862,0 0.01506,0 0.09006,-0.005 0.100225,0 0.01407,0.007 0.01931,0.0264 0.03341,0.0334 0.0099,0.005 0.03341,-0.0111 0.03341,0 0,0.0111 -0.02553,0.008 -0.03341,0 -0.0079,-0.008 0,-0.0223 0,-0.0334"
       id="path4632"
       inkscape:connector-curvature="0" />
    <path
       style="fill:none;stroke:#000000;stroke-width:0.26458332px;stroke-linecap:butt;stroke-linejoin:miter;stroke-opacity:1"
       d="m 23.415157,202.29171 c -0.03341,-0.0445 -0.06085,-0.0943 -0.100226,-0.13363 -0.0079,-0.008 -0.02553,0.008 -0.03341,0 -0.0079,-0.008 0.0079,-0.0255 0,-0.0334 -0.0079,-0.008 -0.02553,0.008 -0.03341,0 -0.01574,-0.0157 0.01574,-0.0511 0,-0.0668 -0.0079,-0.008 -0.02553,0.008 -0.03341,0 -0.01669,-0.0167 0.0167,-0.0835 0,-0.10023 -0.0079,-0.008 -0.02553,0.008 -0.03341,0 -0.0079,-0.008 0,-0.0223 0,-0.0334 0,-0.0111 0,-0.0223 0,-0.0334 0,-0.15591 0,-0.31182 0,-0.46773 0,-0.0779 0,-0.1559 0,-0.23386 0,-0.0111 -0.0079,-0.0255 0,-0.0334 0.04454,-0.0446 0.03341,0.0557 0.03341,-0.0334 0,-0.078 0,-0.15591 0,-0.23386 0,-0.0151 -0.0051,-0.0901 0,-0.10023 0.007,-0.0141 0.02635,-0.0193 0.03341,-0.0334 0.0091,-0.0181 -0.0091,-0.12449 0,-0.13363 0.0079,-0.008 0.02553,0.008 0.03341,0 0.01669,-0.0167 -0.01669,-0.0835 0,-0.10023 0.0079,-0.008 0.02228,0 0.03341,0 0.05568,0 0.111363,0 0.167044,0 0.01114,0 0.02553,0.008 0.03341,0 0.0079,-0.008 -0.0079,-0.0255 0,-0.0334 0.0013,-0.001 0.121367,0 0.133635,0"
       id="path4634"
       inkscape:connector-curvature="0" />
    <path
       style="fill:none;stroke:#000000;stroke-width:0.26458332px;stroke-linecap:butt;stroke-linejoin:miter;stroke-opacity:1"
       d="m 24.58446,202.15808 c -0.03341,-0.0446 -0.06682,-0.0891 -0.100224,-0.13364 -0.01114,0 -0.02553,0.008 -0.03341,0 -0.0079,-0.008 0.0079,-0.0255 0,-0.0334 -0.0079,-0.008 -0.02553,0.008 -0.03341,0 -0.0079,-0.008 0.0079,-0.0255 0,-0.0334 -0.0079,-0.008 -0.02553,0.008 -0.03341,0 -0.01574,-0.0157 0.01574,-0.0511 0,-0.0668 -0.0079,-0.008 -0.02553,0.008 -0.03341,0 -0.0079,-0.008 0.0079,-0.0255 0,-0.0334 -0.0079,-0.008 -0.02553,0.008 -0.03341,0 -0.0079,-0.008 0.005,-0.0235 0,-0.0334 -0.007,-0.0141 -0.02635,-0.0193 -0.03341,-0.0334 -0.005,-0.01 0,-0.0223 0,-0.0334 0,-0.0111 0,-0.0223 0,-0.0334 0,-0.0668 0,-0.13363 0,-0.20045 0,-0.0111 0,-0.0223 0,-0.0334 0,-0.0111 -0.0079,-0.0255 0,-0.0334 0.0079,-0.008 0.02553,0.008 0.03341,0 0.0079,-0.008 0,-0.0223 0,-0.0334 0,-0.0111 0,-0.0223 0,-0.0334 0,-0.0668 0,-0.13364 0,-0.20046 0,-0.015 -0.0051,-0.0901 0,-0.10022 0.007,-0.0141 0.02635,-0.0193 0.03341,-0.0334 0.0043,-0.009 0,-0.17677 0,-0.20045 0,-0.0111 -0.0079,-0.0255 0,-0.0334 0.0079,-0.008 0.02553,0.008 0.03341,0 0.0068,-0.007 -0.0066,-0.087 0,-0.10023 0.007,-0.0141 0.02635,-0.0193 0.03341,-0.0334 0.0099,-0.0199 -0.01574,-0.0511 0,-0.0668 0.0079,-0.008 0.02553,0.008 0.03341,0 0.0079,-0.008 -0.0079,-0.0255 0,-0.0334 0.0079,-0.008 0.02553,0.008 0.03341,0 0.06912,-0.0691 -0.10563,0.003 0.03341,-0.0668 0.0099,-0.005 0.02553,0.008 0.03341,0 0.0079,-0.008 -0.0079,-0.0255 0,-0.0334 0.01574,-0.0157 0.05107,0.0157 0.06682,0 0.0079,-0.008 -0.0079,-0.0255 0,-0.0334 0.0079,-0.008 0.02344,0.005 0.03341,0 0.01408,-0.007 0.01931,-0.0264 0.03341,-0.0334 0.01,-0.005 0.02553,0.008 0.03341,0 0.0079,-0.008 -0.0079,-0.0255 0,-0.0334 0.01574,-0.0157 0.05107,0.0157 0.06682,0 0.0079,-0.008 -0.0079,-0.0255 0,-0.0334 0.01574,-0.0157 0.05107,0.0157 0.06682,0 0.04455,-0.0445 -0.05568,-0.0334 0.03341,-0.0334"
       id="path4636"
       inkscape:connector-curvature="0" />
    <path
       style="fill:none;stroke:#000000;stroke-width:0.26458332px;stroke-linecap:butt;stroke-linejoin:miter;stroke-opacity:1"
       d="m 25.753765,200.55446 c -0.04455,-0.0111 -0.08772,-0.0334 -0.133634,-0.0334 -0.02228,0 0.01574,0.0511 0,0.0668 -0.0079,0.008 -0.02553,-0.008 -0.03341,0 -0.01574,0.0157 0.01574,0.0511 0,0.0668 -0.0079,0.008 -0.02553,-0.008 -0.03341,0 -0.0167,0.0167 0.01669,0.0835 0,0.10023 -0.0079,0.008 -0.02553,-0.008 -0.03341,0 -0.0167,0.0167 0.0167,0.0835 0,0.10023 -0.0079,0.008 -0.02553,-0.008 -0.03341,0 -0.01574,0.0157 0.01574,0.0511 0,0.0668 -0.0079,0.008 -0.02553,-0.008 -0.03341,0 -0.01574,0.0157 0.01574,0.0511 0,0.0668 -0.0079,0.008 -0.02553,-0.008 -0.03341,0 -0.01669,0.0167 0.0167,0.0835 0,0.10023 -0.0079,0.008 -0.02553,-0.008 -0.03341,0 -0.01669,0.0167 0.01669,0.0835 0,0.10022 -0.0079,0.008 -0.02553,-0.008 -0.03341,0 -0.0013,0.001 0,0.12137 0,0.13364 0,0.078 0,0.15591 0,0.23386 0,0.015 -0.0051,0.0901 0,0.10023 0.007,0.0141 0.02635,0.0193 0.03341,0.0334 0.0099,0.0199 -0.01574,0.0511 0,0.0668 0.0079,0.008 0.02553,-0.008 0.03341,0 0.01574,0.0157 -0.01574,0.0511 0,0.0668 0.0079,0.008 0.02553,-0.008 0.03341,0 0.01574,0.0157 -0.0099,0.0469 0,0.0668 0.06952,0.13904 -0.0024,-0.0357 0.06682,0.0334 0.01574,0.0157 -0.01574,0.0511 0,0.0668 0.0079,0.008 0.02553,-0.008 0.03341,0 0.0079,0.008 -0.0079,0.0255 0,0.0334 0.01574,0.0157 0.05107,-0.0157 0.06682,0 0.0079,0.008 -0.0079,0.0255 0,0.0334 0.0079,0.008 0.02228,0 0.03341,0 0.01114,0 0.02228,0 0.03341,0"
       id="path4640"
       inkscape:connector-curvature="0" />
    <path
       style="fill:none;stroke:#000000;stroke-width:0.26458332px;stroke-linecap:butt;stroke-linejoin:miter;stroke-opacity:1"
       d="m 22.579939,203.12693 c -0.04454,0.0334 -0.08909,0.0668 -0.133635,0.10022 0,0.0111 0.0079,0.0255 0,0.0334 -0.0079,0.008 -0.02553,-0.008 -0.03341,0 -0.0011,0.001 0,0.0921 0,0.10023 0,0.0668 0,0.13363 0,0.20045 0,0.0111 0,0.0223 0,0.0334 0,0.0111 0.005,0.0234 0,0.0334 -0.007,0.0141 -0.02635,0.0193 -0.03341,0.0334 -7.93e-4,0.002 -7.93e-4,0.0985 0,0.10022 0.007,0.0141 0.02635,0.0193 0.03341,0.0334 0.005,0.01 0,0.0223 0,0.0334 0.01114,0.0111 0.02635,0.0193 0.03341,0.0334 0,0.0891 -0.01114,-0.0111 0.03341,0.0334 0.0079,0.008 -0.0079,0.0255 0,0.0334 0.0079,0.008 0.02553,-0.008 0.03341,0 0.0079,0.008 -0.0079,0.0255 0,0.0334 0.0079,0.008 0.02228,0 0.03341,0 0.01114,0 0.02553,-0.008 0.03341,0 0.0079,0.008 -0.0079,0.0255 0,0.0334 0.0079,0.008 0.02228,0 0.03341,0 0.01114,0 0.02228,0 0.03341,0 0.01228,0 0.132289,-0.001 0.133636,0 0.0079,0.008 -0.0079,0.0255 0,0.0334 0.0016,0.002 0.151289,0 0.167042,0 0.02323,0 0.154961,0.006 0.167045,0 0.01408,-0.007 0.01931,-0.0264 0.03341,-0.0334 0.01326,-0.007 0.0934,0.007 0.100227,0 0.0079,-0.008 -0.0079,-0.0255 0,-0.0334 0.01574,-0.0157 0.05107,0.0157 0.06682,0 0.0079,-0.008 -0.0079,-0.0255 0,-0.0334 0.01574,-0.0157 0.05107,0.0157 0.06682,0 0.0079,-0.008 -0.0079,-0.0255 0,-0.0334 0.0079,-0.008 0.02344,0.005 0.03341,0 0.01408,-0.007 0.01932,-0.0264 0.03341,-0.0334 0.0099,-0.005 0.02553,0.008 0.03341,0 0.0079,-0.008 -0.0079,-0.0255 0,-0.0334 0.01574,-0.0157 0.05107,0.0157 0.06682,0 0.01574,-0.0157 -0.01574,-0.0511 0,-0.0668 0.0079,-0.008 0.02553,0.008 0.03341,0 0.01574,-0.0157 -0.01574,-0.0511 0,-0.0668 0.0079,-0.008 0.02553,0.008 0.03341,0 0.0016,-0.002 0,-0.1513 0,-0.16705 0,-0.0557 0,-0.11136 0,-0.16704 0,-0.0111 0.0079,-0.0255 0,-0.0334 -0.0079,-0.008 -0.02553,0.008 -0.03341,0 -0.01172,-0.0117 0.01153,-0.14397 0,-0.16704 -0.007,-0.0141 -0.02635,-0.0193 -0.03341,-0.0334 -0.005,-0.01 0.0079,-0.0255 0,-0.0334 -0.0079,-0.008 -0.02553,0.008 -0.03341,0 -0.0079,-0.008 0.0079,-0.0255 0,-0.0334 -0.01574,-0.0157 -0.05107,0.0157 -0.06682,0 -0.0079,-0.008 0.0079,-0.0255 0,-0.0334 -0.01574,-0.0157 -0.05107,0.0157 -0.06682,0 -0.0079,-0.008 0.0079,-0.0255 0,-0.0334 -0.0011,-0.001 -0.09213,0 -0.100227,0 -0.01228,0 -0.132289,-0.001 -0.133636,0 -0.0079,0.008 0.0079,0.0255 0,0.0334 -0.01574,0.0157 -0.05107,-0.0157 -0.06682,0 -0.0079,0.008 0.0079,0.0255 0,0.0334 -0.0079,0.008 -0.02228,0 -0.03341,0 -0.01114,0 -0.02553,-0.008 -0.03341,0 -0.0079,0.008 0.0079,0.0255 0,0.0334 -0.0079,0.008 -0.02553,-0.008 -0.03341,0 -0.0079,0.008 0.0079,0.0255 0,0.0334 -0.01574,0.0158 -0.05107,-0.0157 -0.06682,0 -0.0079,0.008 0.0079,0.0255 0,0.0334 -0.008,0.008 -0.125595,-0.008 -0.133633,0 -0.0079,0.008 0.0079,0.0255 0,0.0334 -0.01574,0.0157 -0.05107,-0.0157 -0.06682,0 -0.0079,0.008 0.0099,0.0384 0,0.0334 -0.0498,-0.0249 -0.08589,-0.12887 -0.133636,-0.10022 -0.05809,0.0349 -0.01198,0.13619 -0.03341,0.20045 -0.007,0.0211 -0.05107,-0.0157 -0.06682,0 -0.0079,0.008 0.0079,0.0255 0,0.0334 -0.0167,0.0167 -0.08352,-0.0167 -0.100225,0 -0.04454,0.0445 0.05568,0.0334 -0.03341,0.0334"
       id="path4642"
       inkscape:connector-curvature="0" />
    <path
       style="fill:none;stroke:#000000;stroke-width:0.26458332px;stroke-linecap:butt;stroke-linejoin:miter;stroke-opacity:1"
       d="m 25.152409,202.99329 c -0.04454,-0.0223 -0.08909,-0.0445 -0.133636,-0.0668 0,-0.0111 0.0079,-0.0255 0,-0.0334 -0.0079,-0.008 -0.02228,0 -0.03341,0 -0.05568,0 -0.11136,0 -0.167042,0 -0.01114,0 -0.02228,0 -0.03341,0 -0.01114,0 -0.02553,-0.008 -0.03341,0 -0.0079,0.008 0.0079,0.0255 0,0.0334 -0.0079,0.008 -0.02553,-0.008 -0.03341,0 -0.0079,0.008 0.0079,0.0255 0,0.0334 -0.0079,0.008 -0.02553,-0.008 -0.03341,0 -0.0079,0.008 0.0079,0.0255 0,0.0334 -0.0079,0.008 -0.02553,-0.008 -0.03341,0 -0.0167,0.0167 0.0167,0.0835 0,0.10023 -0.0079,0.008 -0.02553,-0.008 -0.03341,0 -0.01574,0.0157 0.01574,0.0511 0,0.0668 -0.0079,0.008 -0.02553,-0.008 -0.03341,0 -0.0167,0.0167 0.01669,0.0835 0,0.10022 -0.0079,0.008 -0.02553,-0.008 -0.03341,0 -0.02225,0.0223 0.02225,0.0446 0,0.0668 -0.0079,0.008 -0.02553,-0.008 -0.03341,0 -0.0011,0.001 0,0.0921 0,0.10023 0,0.0668 0,0.13363 0,0.20045 0,0.0111 -0.0079,0.0255 0,0.0334 0.0079,0.008 0.02553,-0.008 0.03341,0 0.01574,0.0157 -0.01574,0.0511 0,0.0668 0.0079,0.008 0.02553,-0.008 0.03341,0 0.01574,0.0157 -0.01574,0.0511 0,0.0668 0.0079,0.008 0.02553,-0.008 0.03341,0 0.0079,0.008 -0.0079,0.0255 0,0.0334 0.0079,0.008 0.02553,-0.008 0.03341,0 0.0079,0.008 -0.0079,0.0255 0,0.0334 0.0079,0.008 0.02228,0 0.03341,0 0.01114,0 0.02553,-0.008 0.03341,0 0.0079,0.008 -0.0079,0.0255 0,0.0334 0.0167,0.0167 0.08352,-0.0167 0.100227,0 0.0079,0.008 -0.0079,0.0255 0,0.0334 0.0013,0.001 0.121365,0 0.133633,0 0.05568,0 0.111363,0 0.167045,0 0.01114,0 0.02228,0 0.03341,0 0.01114,0 0.02344,0.005 0.03341,0 0.01408,-0.007 0.01932,-0.0264 0.03341,-0.0334 0.01325,-0.007 0.09339,0.007 0.100224,0 0.0079,-0.008 -0.0079,-0.0255 0,-0.0334 0.01574,-0.0157 0.05107,0.0157 0.06682,0 0.0079,-0.008 -0.0079,-0.0255 0,-0.0334 0.01574,-0.0157 0.0469,0.01 0.06682,0 0.01408,-0.007 0.01931,-0.0264 0.03341,-0.0334 0.0099,-0.005 0.02553,0.008 0.03341,0 0.0079,-0.008 -0.0079,-0.0255 0,-0.0334 0.01574,-0.0157 0.05107,0.0158 0.06682,0 0.0079,-0.008 -0.0079,-0.0255 0,-0.0334 0.01574,-0.0157 0.05107,0.0157 0.06681,0 0.0079,-0.008 -0.0079,-0.0255 0,-0.0334 0.0079,-0.008 0.02553,0.008 0.03341,0 0.0079,-0.008 -0.0079,-0.0255 0,-0.0334 0.0079,-0.008 0.02553,0.008 0.03341,0 0.0079,-0.008 -0.0079,-0.0255 0,-0.0334 0.0079,-0.008 0.02553,0.008 0.03341,0 0.0079,-0.008 -0.0079,-0.0255 0,-0.0334 0.0079,-0.008 0.02553,0.008 0.03341,0 0.0013,-0.001 0,-0.12137 0,-0.13364 0,-0.0111 0.0079,-0.0255 0,-0.0334 -0.0079,-0.008 -0.02553,0.008 -0.03341,0 -0.01574,-0.0157 0.01574,-0.0511 0,-0.0668 -0.0079,-0.008 -0.02553,0.008 -0.03341,0 -0.02225,-0.0223 0.02225,-0.0446 0,-0.0668 -0.0079,-0.008 -0.02553,0.008 -0.03341,0 -0.0167,-0.0167 0.01669,-0.0835 0,-0.10022 -0.0079,-0.008 -0.02553,0.008 -0.03341,0 -0.0079,-0.008 0.0079,-0.0255 0,-0.0334 -0.0079,-0.008 -0.02553,0.008 -0.03341,0 -0.0079,-0.008 0.0079,-0.0255 0,-0.0334 -0.0079,-0.008 -0.02553,0.008 -0.03341,0 -0.0079,-0.008 0.0079,-0.0255 0,-0.0334 -0.01574,-0.0158 -0.05107,0.0157 -0.06682,0 -0.01574,-0.0158 0.01574,-0.0511 0,-0.0668 -0.01574,-0.0157 -0.05107,0.0157 -0.06682,0 -0.0079,-0.008 0.0079,-0.0255 0,-0.0334 -0.0079,-0.008 -0.02553,0.008 -0.03341,0 -0.0079,-0.008 0.0079,-0.0255 0,-0.0334 -0.01669,-0.0167 -0.08352,0.0167 -0.100227,0 -0.0079,-0.008 0.0079,-0.0255 0,-0.0334 -0.0079,-0.008 -0.02228,0 -0.03341,0 -0.01114,0 -0.02553,-0.008 -0.03341,0 -0.0079,0.008 0.0093,0.0272 0,0.0334 -0.0293,0.0195 -0.06682,0.0223 -0.100227,0.0334 z"
       id="path4644"
       inkscape:connector-curvature="0" />
    <path
       style="fill:none;stroke:#000000;stroke-width:0.26458332px;stroke-linecap:butt;stroke-linejoin:miter;stroke-opacity:1"
       d="m 23.34834,206.33416 c -0.04455,-0.0111 -0.08909,-0.0223 -0.133636,-0.0334 0,-0.0111 0.0079,-0.0255 0,-0.0334 -0.0033,-0.003 -0.09689,-0.003 -0.100224,0 -0.0079,0.008 0.0079,0.0255 0,0.0334 -0.0167,0.0167 -0.08352,-0.0167 -0.100227,0 -0.0079,0.008 0.0079,0.0255 0,0.0334 -0.01574,0.0157 -0.05107,-0.0157 -0.06682,0 -0.0079,0.008 0.0079,0.0255 0,0.0334 -0.01574,0.0157 -0.0469,-0.01 -0.06682,0 -0.01408,0.007 -0.01931,0.0264 -0.03341,0.0334 -0.0099,0.005 -0.02553,-0.008 -0.03341,0 -0.0079,0.008 0.0079,0.0255 0,0.0334 -0.01574,0.0157 -0.04689,-0.01 -0.06682,0 -0.01408,0.007 -0.01931,0.0264 -0.03341,0.0334 -0.0099,0.005 -0.02553,-0.008 -0.03341,0 -0.0079,0.008 0.0079,0.0255 0,0.0334 -0.0079,0.008 -0.02553,-0.008 -0.03341,0 -0.0011,0.001 0,0.0921 0,0.10022 0,0.0111 0,0.0223 0,0.0334 0,0.0111 0.0079,0.0255 0,0.0334 -0.0079,0.008 -0.02553,-0.008 -0.03341,0 -0.0079,0.008 0,0.0223 0,0.0334 0,0.0232 0.006,0.15496 0,0.16704 -0.007,0.0141 -0.02635,0.0193 -0.03341,0.0334 -0.006,0.0121 0,0.14381 0,0.16704 0,0.0175 -0.0044,0.12485 0,0.13364 0.007,0.0141 0.02635,0.0193 0.03341,0.0334 0.0099,0.0199 -0.01574,0.0511 0,0.0668 0.0079,0.008 0.02553,-0.008 0.03341,0 0.02225,0.0223 -0.02225,0.0446 0,0.0668 0.0079,0.008 0.02553,-0.008 0.03341,0 0.01574,0.0157 -0.01574,0.0511 0,0.0668 0.0079,0.008 0.02553,-0.008 0.03341,0 0.0079,0.008 -0.0079,0.0255 0,0.0334 0.0079,0.008 0.02344,-0.005 0.03341,0 0.01408,0.007 0.01932,0.0264 0.03341,0.0334 0.0099,0.005 0.02344,-0.005 0.03341,0 0.01408,0.007 0.01931,0.0264 0.03341,0.0334 0.0046,0.002 0.19589,0.002 0.200454,0 0.01408,-0.007 0.01931,-0.0264 0.03341,-0.0334 0.01992,-0.01 0.05107,0.0157 0.06682,0 0.0079,-0.008 -0.0079,-0.0255 0,-0.0334 0.01574,-0.0157 0.05107,0.0157 0.06682,0 0.0079,-0.008 -0.0079,-0.0255 0,-0.0334 0.01574,-0.0157 0.05107,0.0158 0.06682,0 0.0079,-0.008 -0.0079,-0.0255 0,-0.0334 0.01669,-0.0167 0.08352,0.0167 0.100227,0 0.0079,-0.008 -0.0079,-0.0255 0,-0.0334 0.01574,-0.0157 0.05107,0.0157 0.06682,0 0.0079,-0.008 -0.0079,-0.0255 0,-0.0334 0.0079,-0.008 0.02344,0.005 0.03341,0 0.01408,-0.007 0.01931,-0.0264 0.03341,-0.0334 0.01992,-0.01 0.05107,0.0157 0.06682,0 0.0079,-0.008 -0.0079,-0.0255 0,-0.0334 0.0079,-0.008 0.02344,0.005 0.03341,0 0.02817,-0.0141 0.03865,-0.0527 0.06682,-0.0668 0.0099,-0.005 0.02553,0.008 0.03341,0 0.008,-0.008 -0.008,-0.1256 0,-0.13364 0.0079,-0.008 0.02553,0.008 0.03341,0 0.0079,-0.008 -0.0079,-0.0255 0,-0.0334 0.0079,-0.008 0.02553,0.008 0.03341,0 0.0079,-0.008 0,-0.0223 0,-0.0334 0,-0.0111 0,-0.0223 0,-0.0334 0,-0.0891 0,-0.17818 0,-0.26727 0,-0.0111 0.0079,-0.0255 0,-0.0334 -0.0079,-0.008 -0.02553,0.008 -0.03341,0 -0.01574,-0.0157 0.01574,-0.0511 0,-0.0668 -0.0079,-0.008 -0.02553,0.008 -0.03341,0 -0.01574,-0.0157 0.01574,-0.0511 0,-0.0668 -0.0079,-0.008 -0.02553,0.008 -0.03341,0 -0.0079,-0.008 0.0079,-0.0255 0,-0.0334 -0.01574,-0.0157 -0.05107,0.0157 -0.06682,0 -0.0079,-0.008 0.0079,-0.0255 0,-0.0334 -0.0079,-0.008 -0.02553,0.008 -0.03341,0 -0.01574,-0.0158 0.01574,-0.0511 0,-0.0668 -0.0079,-0.008 -0.02553,0.008 -0.03341,0 -0.01574,-0.0157 0.01574,-0.0511 0,-0.0668 -0.0079,-0.008 -0.02553,0.008 -0.03341,0 -0.0079,-0.008 0.0079,-0.0255 0,-0.0334 -0.0079,-0.008 -0.02249,-0.002 -0.03341,0 -0.04502,0.009 -0.08909,0.0223 -0.133635,0.0334 z"
       id="path4646"
       inkscape:connector-curvature="0" />
    <path
       style="fill:none;stroke:#000000;stroke-width:0.26458332px;stroke-linecap:butt;stroke-linejoin:miter;stroke-opacity:1"
       d="m 23.34834,206.33416 c -0.01114,-0.0779 -0.02363,-0.15572 -0.03341,-0.23386 -0.0054,-0.0429 0,-0.0903 0,-0.13363 0,-0.0891 0,-0.17818 0,-0.26727 0,-0.008 0.0011,-0.0992 0,-0.10023 -0.0079,-0.008 -0.02553,0.008 -0.03341,0 -0.0079,-0.008 0,-0.0223 0,-0.0334 0,-0.0557 0,-0.11136 0,-0.16704 0,-0.0111 0.0079,-0.0255 0,-0.0334 -0.0079,-0.008 -0.02553,0.008 -0.03341,0 -0.0016,-0.002 0,-0.15129 0,-0.16704 0,-0.0111 0.0079,-0.0255 0,-0.0334 -0.0079,-0.008 -0.02553,0.008 -0.03341,0 -0.0011,-0.001 0,-0.0921 0,-0.10023 0,-0.22272 0,-0.44545 0,-0.66817 0,-0.0111 0,-0.0223 0,-0.0334 0,-0.0111 0.0079,-0.0255 0,-0.0334 -0.0079,-0.008 -0.02553,0.008 -0.03341,0 -0.0079,-0.008 0,-0.0223 0,-0.0334 0,-0.0668 0,-0.13363 0,-0.20045 0,-0.0334 0,-0.0668 0,-0.10023 0,-0.0111 0.01114,-0.0334 0,-0.0334 -0.134091,-4e-5 -0.267264,0.0222 -0.400894,0.0333"
       id="path4648"
       inkscape:connector-curvature="0" />
    <path
       style="fill:none;stroke:#000000;stroke-width:0.26458332px;stroke-linecap:butt;stroke-linejoin:miter;stroke-opacity:1"
       d="m 24.818317,203.92862 c 0.111363,0.0669 0.222729,0.13371 0.334092,0.20057 0,0.0111 -0.0079,0.0255 0,0.0334 0.0079,0.008 0.02553,-0.008 0.03341,0 0.0013,0.001 0,0.12136 0,0.13363 0,0.0557 0,0.11136 0,0.16705 0,0.0111 0.0079,0.0255 0,0.0334 -0.0079,0.008 -0.02553,-0.008 -0.03341,0 -0.02225,0.0223 0.02225,0.0446 0,0.0668 -0.0079,0.008 -0.02553,-0.008 -0.03341,0 -0.0167,0.0167 0.01669,0.0835 0,0.10023 -0.0079,0.008 -0.02553,-0.008 -0.03341,0 -0.01574,0.0158 0.01574,0.0511 0,0.0668 -0.0079,0.008 -0.02553,-0.008 -0.03341,0 -0.0079,0.008 0.0079,0.0255 0,0.0334 -0.0079,0.008 -0.02553,-0.008 -0.03341,0 -0.01574,0.0157 0.01574,0.0511 0,0.0668 -0.01574,0.0157 -0.05107,-0.0157 -0.06682,0 -0.0079,0.008 0.0079,0.0255 0,0.0334 -0.0079,0.008 -0.02228,0 -0.03341,0 -0.01114,0 -0.02553,-0.008 -0.03341,0 -0.0079,0.008 0.0079,0.0255 0,0.0334 -0.0167,0.0167 -0.08352,-0.0167 -0.100227,0 -0.0079,0.008 0.0079,0.0255 0,0.0334 -0.0079,0.008 -0.02553,-0.008 -0.03341,0 -0.0079,0.008 0.0079,0.0255 0,0.0334 -0.01574,0.0157 -0.05107,-0.0157 -0.06682,0 -0.0079,0.008 0.0079,0.0255 0,0.0334 -0.0091,0.009 -0.11551,-0.009 -0.133634,0 -0.01408,0.007 -0.01931,0.0264 -0.03341,0.0334 -0.01325,0.007 -0.0934,-0.007 -0.100226,0 -0.0079,0.008 0.0079,0.0255 0,0.0334 -0.0079,0.008 -0.02228,0 -0.03341,0 -0.07795,0 -0.155909,0 -0.23386,0 -0.111363,0 -0.222726,0 -0.334087,0 -0.01114,0 -0.02228,0 -0.03341,0 -0.01114,0 -0.02553,-0.008 -0.03341,0 -0.0079,0.008 0.0079,0.0255 0,0.0334 -0.01574,0.0157 -0.05107,-0.0157 -0.06682,0 -0.0079,0.008 0.0079,0.0255 0,0.0334 -0.0167,0.0167 -0.08352,-0.0167 -0.100226,0 -0.0079,0.008 0.0079,0.0255 0,0.0334 -0.0167,0.0167 -0.08352,-0.0167 -0.100225,0 -0.01574,0.0157 0.01574,0.0511 0,0.0668 -0.0079,0.008 -0.02553,-0.008 -0.03341,0 -0.0079,0.008 0.0079,0.0255 0,0.0334 -0.0079,0.008 -0.02553,-0.008 -0.03341,0 -0.0079,0.008 0.005,0.0234 0,0.0334 -0.007,0.0141 -0.02638,0.0193 -0.03341,0.0334 -0.005,0.01 0.0079,0.0255 0,0.0334 -0.0079,0.008 -0.02553,-0.008 -0.03341,0 -0.0167,0.0167 0.01669,0.0835 0,0.10023 -0.0079,0.008 -0.02553,-0.008 -0.03341,0 -0.01574,0.0157 0.01574,0.0511 0,0.0668 -0.0079,0.008 -0.02553,-0.008 -0.03341,0 -0.01574,0.0157 0.0099,0.0469 0,0.0668 -0.007,0.0141 -0.02635,0.0193 -0.03341,0.0334 -0.0099,0.0199 0.01574,0.0511 0,0.0668 -0.0079,0.008 -0.02553,-0.008 -0.03341,0 -0.008,0.008 0.008,0.12559 0,0.13363 -0.0079,0.008 -0.02553,-0.008 -0.03341,0 -0.0079,0.008 0,0.0223 0,0.0334 0,0.0111 0,0.0223 0,0.0334 0,0.0668 0,0.13363 0,0.20045 0,0.0295 -0.0071,0.0718 0,0.10023 0.0085,0.0342 0.02228,0.0668 0.03341,0.10023"
       id="path4650"
       inkscape:connector-curvature="0" />
  </g>
</svg>
